Coordinates
version=1
nRows=8
nColumns=34
inDegrees=yes

Units are S.I. units (second, meters, Newtons, ...)
If the header above contains a line with 'inDegrees', this indicates whether rotational values are in degrees (yes) or radians (no).

endheader
time	pelvis_tilt	pelvis_list	pelvis_rotation	pelvis_tx	pelvis_ty	pelvis_tz	hip_flexion_r	hip_adduction_r	hip_rotation_r	knee_angle_r	ankle_angle_r	subtalar_angle_r	mtp_angle_r	hip_flexion_l	hip_adduction_l	hip_rotation_l	knee_angle_l	ankle_angle_l	subtalar_angle_l	mtp_angle_l	lumbar_extension	lumbar_bending	lumbar_rotation	arm_flex_r	arm_add_r	arm_rot_r	elbow_flex_r	pro_sup_r	arm_flex_l	arm_add_l	arm_rot_l	elbow_flex_l	pro_sup_l
      0.00000000	      4.56279120	      0.69528060	      4.14329400	     -0.85714801	      1.14177199	     -0.03690584	    -13.67040898	     -5.19202050	     -7.10643931	      0.00000000	      3.00627522	    -14.61954316	      0.00000000	    -10.93815730	     -3.29353760	     -2.25973580	      0.54870559	      7.97707294	     -8.83112503	      0.00000000	     -8.11717775	     -1.59273842	     -1.27437125	     -6.66392598	     -4.39821439	    -11.72802329	     26.17955207	     83.22832890	      2.03429584	     -9.60957987	     25.78809150	     13.93739848	     62.22836607
      0.01666670	      1.04093397	     -0.27718222	      4.33067411	     -0.85565509	      1.13293058	     -0.03753596	    -10.02441333	     -4.38795697	     -8.95054558	      0.00000000	      4.91690387	     -9.58998041	      0.00000000	     -6.95149937	     -4.05368181	     -2.58607353	      0.00000000	      7.21554469	     -6.65505473	      0.00000000	     -2.96105755	     -0.71703988	     -1.24639832	     -7.64076970	     -3.45973621	    -16.23901193	     24.59569645	     83.33552085	      0.89171390	     -7.91238095	     15.68296070	     12.92324168	     61.74999974
      0.03333330	     -0.65121484	     -0.34946874	      4.66679861	     -0.85552057	      1.12955537	     -0.03752558	     -8.30328099	     -4.53511492	    -10.36851757	      0.00000000	      5.35213718	     -9.33251953	      0.00000000	     -5.00362532	     -3.90941297	     -2.83378683	      0.00000000	      7.96368521	     -4.68501217	      0.00000000	     -0.69636222	     -1.11486981	     -1.47318721	     -8.62206665	     -3.03656422	    -16.64997350	     24.49355386	     83.34652226	      0.09419923	     -8.21393605	     15.28169645	     12.67477672	     62.04418685
      0.05000000	     -1.79910336	     -0.44447772	      4.98714441	     -0.85610283	      1.12656300	     -0.03769041	     -7.04526030	     -4.55159828	    -11.18535046	      0.00000000	      6.26428955	     -8.47618943	      0.00000000	     -3.74610792	     -3.93962689	     -3.11548236	      0.00000000	      8.15708391	     -3.35246914	      0.00000000	      0.80726288	     -1.42442062	     -1.28306151	     -9.23315384	     -2.84177007	    -17.13752275	     24.22737614	     83.37610733	     -0.33495631	     -8.47577312	     14.93500151	     12.18072211	     62.28394435
      0.06666670	     -2.07704084	     -0.60118511	      5.08867939	     -0.85710265	      1.12439913	     -0.03770410	     -6.74473693	     -4.35826916	    -11.31361385	      0.00000000	      6.87467591	     -8.59645736	      0.00000000	     -3.48423343	     -4.08571351	     -2.88454906	      0.00000000	      8.35292094	     -3.09704151	      0.00000000	      0.85391536	     -1.24798460	     -1.12502895	     -9.19404154	     -2.92313083	    -17.21995886	     24.20717900	     83.39563825	     -0.25183753	     -8.54849029	     14.85485512	     12.07974879	     62.31496201
      0.08333330	     -2.90971937	     -0.69983109	      5.21135924	     -0.85694752	      1.12147477	     -0.03772572	     -5.89820294	     -4.24102929	    -11.70355418	      0.00000000	      7.48251660	     -7.95782414	      0.00000000	     -2.65150455	     -4.14057434	     -2.74585528	      0.00000000	      8.74440867	     -2.43613058	      0.00000000	      2.19381346	     -1.23291614	     -0.42958662	     -9.70843557	     -2.94157919	    -17.65950065	     23.79935735	     83.53347139	      0.18338930	     -8.52773922	     14.25804345	     11.63485966	     62.41049269
      0.10000000	     -3.07481177	     -0.75307431	      5.31035058	     -0.85750088	      1.12055514	     -0.03770721	     -5.71279412	     -4.13053993	    -11.57785314	      0.00000000	      7.92025348	     -8.01580815	      0.00000000	     -2.51170712	     -4.22760847	     -2.47589071	      0.00000000	      8.82381743	     -2.29855813	      0.00000000	      2.33300299	     -1.18312373	     -0.41803943	     -9.52021840	     -2.97214946	    -17.72355821	     23.78932717	     83.56504326	      0.89222849	     -8.68379674	     14.10502724	     11.86111715	     62.41725839
      0.11666670	     -3.29480343	     -0.78954834	      5.62292717	     -0.85741008	      1.12093878	     -0.03797124	     -5.54003778	     -4.03305428	    -11.75346772	      0.00000000	      8.20908714	     -8.03257183	      0.00000000	     -2.28622607	     -4.29894223	     -1.97816642	      0.00000000	      8.86014530	     -2.17337518	      0.00000000	      2.80913362	     -1.20523899	      0.05384774	     -9.74803232	     -2.88508961	    -17.93169142	     23.43640227	     83.67104209	      1.88460201	     -8.80330130	     13.59053217	     12.61509101	     62.42274842
